<svg width="36" height="36" viewBox="0 0 36 36" fill="none" xmlns="http://www.w3.org/2000/svg">
<g clip-path="url(#clip0_439_103387)">
<path d="M18 34C15.3478 34 12.8043 32.9464 10.9289 31.0711C9.05357 29.1957 8 26.6522 8 24V12C8 9.34784 9.05357 6.8043 10.9289 4.92893C12.8043 3.05357 15.3478 2 18 2C20.6522 2 23.1957 3.05357 25.0711 4.92893C26.9464 6.8043 28 9.34784 28 12V24C28 25.3132 27.7413 26.6136 27.2388 27.8268C26.7362 29.0401 25.9997 30.1425 25.0711 31.0711C24.1425 31.9997 23.0401 32.7362 21.8268 33.2388C20.6136 33.7413 19.3132 34 18 34ZM18 4C15.8783 4 13.8434 4.84285 12.3431 6.34315C10.8429 7.84344 10 9.87827 10 12V24C10 26.1217 10.8429 28.1566 12.3431 29.6569C13.8434 31.1571 15.8783 32 18 32C20.1217 32 22.1566 31.1571 23.6569 29.6569C25.1571 28.1566 26 26.1217 26 24V12C26 9.87827 25.1571 7.84344 23.6569 6.34315C22.1566 4.84285 20.1217 4 18 4Z" fill="#0E121D"/>
<path d="M18 15C17.7348 15 17.4804 14.8946 17.2929 14.7071C17.1054 14.5196 17 14.2652 17 14V10C17 9.73478 17.1054 9.48043 17.2929 9.29289C17.4804 9.10536 17.7348 9 18 9C18.2652 9 18.5196 9.10536 18.7071 9.29289C18.8946 9.48043 19 9.73478 19 10V14C19 14.2652 18.8946 14.5196 18.7071 14.7071C18.5196 14.8946 18.2652 15 18 15Z" fill="#0E121D"/>
</g>
<defs>
<clipPath id="clip0_439_103387">
<rect width="36" height="36" fill="white"/>
</clipPath>
</defs>
</svg>
