<?xml version="1.0" encoding="utf-8"?>
<!-- Generator: Adobe Illustrator 23.0.5, SVG Export Plug-In . SVG Version: 6.00 Build 0)  -->
<svg version="1.1" id="Capa_1" xmlns="http://www.w3.org/2000/svg" xmlns:xlink="http://www.w3.org/1999/xlink" x="0px" y="0px"
	 viewBox="0 0 60 60" style="enable-background:new 0 0 60 60;" xml:space="preserve">
<style type="text/css">
	.st0{fill:#2F2F2F;}
</style>
<g>
	<path class="st0" d="M59.3,31.4c-0.4,0.7-0.9,1.3-1.1,2c-0.9,2.2-1.7,4.4-2.6,6.5c-0.1,0.3-0.5,0.7-0.8,0.8c-0.7,0.2-1.3-0.5-1-1.3
		c0.6-1.6,1.2-3.2,1.8-4.8c0.1-0.2,0.2-0.5,0.3-0.7c-17.4,0-34.8,0-52.2,0C3.8,34,3.9,34.2,4,34.4c0.6,1.7,1.3,3.3,1.9,5
		C6,39.8,6,40.3,5.6,40.5c-0.3,0.2-0.7,0.1-1,0c-0.2-0.1-0.3-0.4-0.4-0.6c-0.9-2.4-1.9-4.8-2.8-7.2c-0.1-0.4-0.3-0.7-0.5-1
		c-1-1.9-0.4-4.1,1.6-5.1c2-1,4.1-1,6.2-0.6c1.3,0.3,2,1.3,2.3,2.6c0.2,1,0.4,2,0.7,3c0,0.1,0.3,0.3,0.4,0.3c0.1,0,0.2,0,0.3,0
		c11.6,0,23.2,0,34.8,0c0.2,0,0.4,0,0.7,0c0.3-1.1,0.6-2.1,0.8-3.2c0.3-1.6,1.4-2.3,2.7-2.6c1.9-0.4,3.8-0.3,5.6,0.4
		c1,0.4,1.7,1.1,2.2,2.1C59.3,29.5,59.3,30.4,59.3,31.4z M49.8,31.8c2,0,3.8,0,5.7,0c0.9,0,1.8-0.9,2-1.7c0.1-0.8-0.4-1.6-1.4-2
		c-0.2-0.1-0.3-0.1-0.5-0.2c-1.2-0.1-2.5-0.2-3.7-0.2c-0.3,0-0.7,0.2-0.9,0.4c-0.4,0.4-0.4,0.7,0.2,0.8c0.8,0.2,1.5,0.3,2.3,0.4
		c0.7,0.1,1.1,0.4,1.1,1c0,0.6-0.5,0.9-1.2,0.8c-1.1-0.1-2.1-0.3-3.2-0.5C50,31,49.9,31.4,49.8,31.8z M9.7,30.7c-1,0.1-2,0.3-3,0.4
		c-0.7,0.1-1.2-0.3-1.2-0.9c0-0.6,0.3-0.9,1.1-0.9c0.7-0.1,1.5-0.2,2.2-0.4c0.5-0.1,0.6-0.5,0.2-0.8c-0.3-0.3-0.7-0.5-1.1-0.5
		c-1,0-2,0-2.9,0.1c-0.5,0.1-1.1,0.2-1.5,0.5c-1.2,0.7-1.3,2.2-0.2,3c0.4,0.3,1.1,0.5,1.6,0.5c1.5,0.1,3.1,0.1,4.6,0.1
		c0.2,0,0.3,0,0.5,0C9.8,31.3,9.7,31,9.7,30.7z"/>
	<path class="st0" d="M20.3,19.3c-0.6,0-1.1,0-1.6,0c-1.4-0.1-2.2-1.3-1.6-2.6c0.4-0.9,1-1.6,1.9-2.1c0.3-0.2,0.4-0.4,0.4-0.7
		c0.2-3.1,1.4-5.6,3.8-7.6c0.6-0.5,1.1-0.5,1.5-0.1c0.4,0.5,0.3,1-0.3,1.5c-1.7,1.5-2.8,3.3-3,5.5c0,0.2,0,0.4-0.1,0.6
		c5.8,0,11.6,0,17.5,0c-0.1-2.1-0.9-3.8-2.3-5.3c-0.3-0.3-0.6-0.6-0.9-0.8c-0.5-0.4-0.6-1-0.3-1.4c0.3-0.4,1-0.4,1.4,0
		c2.1,1.8,3.4,3.9,3.7,6.6c0.1,0.8,0.3,1.4,1,1.9c0.6,0.4,1.1,1.2,1.5,1.9c0.6,1.3-0.1,2.5-1.6,2.6c-0.6,0-1.2,0-1.8,0
		c0.5,6.2-4.7,10.6-9.8,10.4C24.1,29.6,19.8,24.6,20.3,19.3z M22.3,19.4c0,0.4-0.1,0.7-0.1,1c0,4.1,3.6,7.6,7.8,7.6
		c4.3,0,7.7-3.6,7.7-7.8c0-0.6-0.2-0.7-0.7-0.7c-4.7,0-9.3,0-14,0C22.8,19.4,22.6,19.4,22.3,19.4z M18.8,17.4c7.4,0,14.8,0,22.2,0
		c-0.4-1.1-1.2-1.7-2.3-1.7c-5.7,0-11.4,0-17.1,0c-0.3,0-0.7,0-1,0.1C19.7,16,19.1,16.6,18.8,17.4z"/>
	<path class="st0" d="M29.9,58.3c-5.1,0-10.2,0-15.3,0c-2,0-3.5-0.9-4.4-2.7c-0.1-0.3-0.2-0.6-0.3-0.9c-0.1-0.5,0.2-0.9,0.7-1.1
		c0.4-0.1,0.9,0.1,1.1,0.6c0.8,1.8,1.4,2.2,3.3,2.2c10,0,20,0,29.9,0c1.5,0,2.6-0.6,3.2-2.1c0.2-0.5,0.7-0.8,1.1-0.6
		c0.5,0.2,0.8,0.7,0.6,1.2c-0.5,1.9-2.4,3.3-4.7,3.3C40.1,58.3,35,58.3,29.9,58.3z"/>
	<path class="st0" d="M48.1,40.8c0.7,0.1,2,0.4,3.3,0.6c0.7,0.1,1.4,0.1,2,0.1c0.7,0,1.4,0,2.1,0.3c1,0.6,1.5,1.4,1.3,2.6
		c-0.2,1.7-0.6,3.3-1.5,4.8c-1.6,2.6-4.4,3.9-7.5,3.4c-2.2-0.4-3.8-2.2-4.2-4.5c-0.2-1.7,0-3.3,0.5-4.9
		C44.7,41.5,45.8,40.8,48.1,40.8z M45.4,46.4c0.1,0.7,0.2,1.4,0.3,2c0.3,1.1,1,2,2.2,2.3c2,0.6,4.3-0.2,5.5-1.9
		c1-1.3,1.4-2.9,1.5-4.4c0.1-0.7-0.4-1.1-1.1-0.9c-1.4,0.3-2.7-0.1-4.1-0.3c-0.8-0.2-1.6-0.3-2.4-0.4c-0.9-0.1-1.3,0.2-1.5,1.1
		C45.6,44.7,45.5,45.6,45.4,46.4z"/>
	<path class="st0" d="M16.2,46.5c-0.1,0.9-0.1,1.6-0.3,2.2c-0.5,2.6-2.1,3.9-4.8,4c-3.3,0.2-6.1-1.6-7.3-4.9
		c-0.4-1.1-0.6-2.2-0.8-3.4c-0.2-1.6,1.4-3.1,3-2.8c1.1,0.2,2.1,0,3.1-0.2c1-0.2,1.9-0.4,2.9-0.5c1.8-0.2,3.1,0.7,3.6,2.4
		C16,44.5,16.1,45.6,16.2,46.5z M14.5,46.6c-0.1-0.6-0.1-1.2-0.2-1.9c-0.3-1.8-0.8-2.2-2.6-1.9c0,0,0,0-0.1,0
		c-1.9,0.4-3.7,0.9-5.6,0.6c-0.1,0-0.2,0-0.3,0c-0.4,0.2-0.8,0.4-0.7,0.9c0.3,1.1,0.5,2.3,0.9,3.4c0.9,2.2,2.8,3.2,5.1,3.1
		c1.8-0.1,2.9-1,3.2-2.7C14.4,47.6,14.4,47.1,14.5,46.6z"/>
	<path class="st0" d="M26.7,6.6c0-0.8,0-1.5,0-2.3c0-1.8,1.5-3.2,3.2-3.2c1.7,0,3.2,1.4,3.2,3.2c0,1.6,0,3.1,0,4.7
		c0,0.7-0.4,1.1-0.9,1.1c-0.6,0-0.9-0.4-0.9-1.1c0-1.5,0-3,0-4.5c0-0.9-0.6-1.6-1.4-1.6c-0.8,0-1.4,0.7-1.4,1.6c0,1.5,0,2.9,0,4.4
		c0,0.7-0.3,1.1-0.9,1.1c-0.6,0-0.9-0.4-0.9-1.1C26.7,8.1,26.7,7.4,26.7,6.6z"/>
</g>
</svg>
