<?xml version="1.0" encoding="utf-8"?>
<!-- Generator: Adobe Illustrator 23.0.5, SVG Export Plug-In . SVG Version: 6.00 Build 0)  -->
<svg version="1.1" id="Capa_1" xmlns="http://www.w3.org/2000/svg" xmlns:xlink="http://www.w3.org/1999/xlink" x="0px" y="0px"
	 viewBox="0 0 60 60" style="enable-background:new 0 0 60 60;" xml:space="preserve">
<style type="text/css">
	.st0{fill:#2F2F2F;}
</style>
<g>
	<path class="st0" d="M0.9,9.9c0.3-1.1,0.6-2.2,1.4-3.2c1.2-1.5,2.8-2.4,4.8-2.5c1-0.1,1.3,0.2,1.3,1.3c0,2.4,0,4.7,0,7.1
		c0,0.2,0,0.4,0,0.7c0.2,0,0.4,0,0.6,0c8.3,0,16.6,0,24.9,0c0.4,0,0.7-0.1,0.9-0.4C38.2,9.5,41.6,6.2,45,2.8c1.4-1.4,2.8-1.4,4.2,0
		c0.7,0.7,1.5,1.5,2.2,2.2c1.2,1.2,1.2,2.7,0,3.9c-1.3,1.3-2.6,2.6-3.9,4c-0.1,0.1-0.3,0.3-0.5,0.5c0.3,0,0.5,0,0.7,0
		c1.6,0,3.3,0,4.9,0c1.6,0,1.7,0.1,1.7,1.7c0,5.1,0,10.3,0,15.4c0,0.2,0,0.4,0,0.7c0,0,0.1,0.1,0.1,0.1c0.6-0.6,1.2-1.3,1.9-1.9
		c0.1-0.1,0.3-0.3,0.4-0.4c0.3-0.3,0.6-0.5,1.1-0.3c0.4,0.2,0.5,0.5,0.5,1c0,4,0,8.1,0,12.1c0,5.3,0,10.5,0,15.8
		c0,1.1-0.2,1.3-1.3,1.3c-9.2,0-18.4,0-27.7,0c-0.2,0-0.5,0-0.7,0c-0.6-0.2-0.8-0.9-0.4-1.4c0.5-0.6,1.1-1.1,1.6-1.6
		c1-1,2.1-2.1,3.2-3.2c-0.3,0-0.6,0-0.8,0c-8.2,0-16.4,0-24.6,0c-2.6,0-4.6-1.1-5.9-3.5c-0.4-0.7-0.5-1.5-0.7-2.3
		C0.9,34.5,0.9,22.2,0.9,9.9z M6.7,6C6.5,6,6.4,6,6.3,6c-2.2,0.5-3.7,2.5-3.7,5c0,10.2,0,20.3,0,30.5c0,0.1,0,0.3,0,0.5
		c1.1-1.1,2.2-1.8,3.6-2c0.4-0.1,0.5-0.2,0.5-0.6c0-1.5,0-3.1,0-4.6c0-0.6,0.3-1,0.8-1c0.5,0,0.8,0.4,0.8,1c0,1.9,0,3.8,0,5.8
		c0,0.7-0.3,1-1,1c-0.3,0-0.7,0.1-1,0.1c-2.8,0.7-4.9,4.1-3,7c1,1.5,2.4,2.2,4.2,2.2c8,0,16,0,24,0c1,0,2.2,0.3,3-0.1
		c0.9-0.4,1.5-1.4,2.3-2.1c0.4-0.4,0.8-0.8,1.2-1.2c0.4-0.3,0.9-0.3,1.2,0c0.3,0.3,0.4,0.8,0,1.2c-0.1,0.1-0.2,0.2-0.4,0.4
		c-2.5,2.5-5.1,5.1-7.6,7.6c-0.1,0.1-0.3,0.3-0.5,0.5c8.6,0,17.1,0,25.6,0c0-1.3,0-2.6,0-4c-0.5,0-0.9,0-1.3,0c-0.7,0-1-0.3-1-0.8
		c0-0.5,0.4-0.8,1-0.8c0.4,0,0.8,0,1.3,0c0-0.9,0-1.7,0-2.5c-0.5,0-1,0-1.4,0c-0.6,0-0.9-0.4-0.9-0.9c0-0.5,0.3-0.8,0.9-0.8
		c0.5,0,0.9,0,1.4,0c0-0.9,0-1.7,0-2.5c-0.5,0-0.9,0-1.4,0c-0.6,0-1-0.3-1-0.8c0-0.5,0.4-0.8,1-0.8c0.5,0,0.9,0,1.3,0
		c0-0.9,0-1.7,0-2.5c-0.5,0-0.9,0-1.3,0c-0.6,0-1-0.3-1-0.8c0-0.5,0.3-0.8,1-0.9c0.4,0,0.9,0,1.3,0c0-2.5,0-4.9,0-7.3
		c-0.2,0.1-0.4,0.3-0.5,0.4c-2.9,2.9-5.8,5.8-8.7,8.7c-1.8,1.8-3.6,3.6-5.4,5.4c-0.5,0.5-1,0.5-1.3,0.2c-0.4-0.4-0.3-0.9,0.1-1.4
		c0.1-0.1,0.2-0.2,0.3-0.3c3.7-3.7,7.5-7.5,11.2-11.2c0.2-0.2,0.4-0.6,0.4-0.9c0-5.6,0-11.3,0-16.9c0-0.5-0.1-0.6-0.6-0.6
		c-2.1,0-4.1,0-6.2,0c-0.4,0-0.7,0.1-0.9,0.4C40,20.2,35.1,25,30.4,29.9c-1.7,1.8-3.6,3.2-6,3.8c-0.5,0.1-1,0.4-1.5,0.6
		c0,0,0,0.1,0,0.1c0.9,0,1.7,0,2.6,0c4.5,0,9,0,13.5,0c0.7,0,1.1,0.3,1.1,0.9c0,0.5-0.4,0.8-1.1,0.8c-7.6,0-15.2,0-22.9,0
		c-0.6,0-1-0.3-1-0.8c0-0.5,0.4-0.9,1-0.9c0.7,0,1.3,0,2,0c0.4,0,0.6-0.1,0.8-0.5c0.8-2.4,1.6-4.7,2.5-7.1c0.1-0.2,0.1-0.4,0.3-0.6
		c1.3-1.3,2.7-2.7,4-4c0.1-0.1,0.2-0.2,0.2-0.1c0.3,0,0.7,0,0.9,0.2c0.2,0.2,0.2,0.6,0.2,0.9c0,0.2-0.2,0.4-0.4,0.5c-1,1-2,2-3,3
		c1.3,1.3,2.6,2.6,3.8,3.8c5.8-5.8,11.5-11.5,17.3-17.3c-1.2-1.2-2.5-2.5-3.9-3.9c-0.1,0.2-0.2,0.4-0.4,0.5
		c-3.6,3.6-7.2,7.2-10.7,10.8c-0.2,0.2-0.3,0.3-0.5,0.4c-0.4,0.2-0.7,0.2-1-0.1c-0.3-0.3-0.3-0.7-0.1-1c0.1-0.2,0.2-0.3,0.4-0.4
		c1.3-1.3,2.6-2.6,3.8-3.8c0.1-0.1,0.3-0.3,0.5-0.5c-8.1,0-16.2,0-24.3,0c0,0.3,0,0.5,0,0.7c0,5,0,10,0,15c0,0.3,0,0.5-0.1,0.8
		c-0.1,0.4-0.4,0.6-0.8,0.6c-0.4,0-0.7-0.3-0.7-0.7c0-0.2,0-0.5,0-0.7c0-8,0-15.9,0-23.9C6.7,6.5,6.7,6.3,6.7,6z M48.7,9.2
		c0.5-0.5,1-1,1.5-1.5c0.4-0.4,0.5-0.9,0-1.3c-0.8-0.9-1.7-1.7-2.6-2.6c-0.4-0.4-0.8-0.4-1.2,0c-0.6,0.5-1.1,1.1-1.6,1.6
		C46.2,6.6,47.4,7.8,48.7,9.2z M42.1,8c1.3,1.3,2.5,2.6,3.8,3.8c0.5-0.5,1-1,1.4-1.4c-1.3-1.3-2.5-2.5-3.8-3.8
		C43.1,7.1,42.6,7.6,42.1,8z M25.7,31.4c-1-1-2-2.1-3-3.1c-1,2-1,2.2,0.5,3.6c0,0,0,0.1,0.1,0.1c0.1,0,0.3,0.1,0.4,0.1
		C24.4,31.9,25,31.6,25.7,31.4z"/>
	<path class="st0" d="M46.7,52.8c-1.4,0-2.9,0-4.3,0c-0.4,0-0.8-0.1-1-0.5c-0.2-0.5,0-0.8,0.3-1.1c2.9-2.9,5.9-5.8,8.8-8.8
		c0.3-0.3,0.7-0.6,1.1-0.4c0.5,0.2,0.5,0.6,0.5,1.1c0,2.8,0,5.7,0,8.5c0,0.9-0.3,1.2-1.2,1.2C49.5,52.8,48.1,52.8,46.7,52.8z
		 M50.4,45.1c-2,2-4,4-6,6c1.9,0,3.9,0,6,0C50.4,49.1,50.4,47.1,50.4,45.1z"/>
</g>
</svg>
