<?xml version="1.0" encoding="utf-8"?>
<!-- Generator: Adobe Illustrator 23.0.5, SVG Export Plug-In . SVG Version: 6.00 Build 0)  -->
<svg version="1.1" id="Capa_1" xmlns="http://www.w3.org/2000/svg" xmlns:xlink="http://www.w3.org/1999/xlink" x="0px" y="0px"
	 viewBox="0 0 60 60" style="enable-background:new 0 0 60 60;" xml:space="preserve">
<style type="text/css">
	.st0{fill:#2F2F2F;}
</style>
<g>
	<path class="st0" d="M27,1c10.5,0,20.9,0,31.4,0c0.5,0.3,0.7,0.8,0.7,1.4c0,1.6,0,3.2,0,4.9c0,0.7-0.2,1.1-0.7,1.6
		c-4,4-8,8-11.9,11.9c-0.2,0.2-0.4,0.4-0.3,0.8c0.4,2,2,3.6,4.5,3.6c2.4,0,4.7,0,7.1,0c1,0,1.3,0.3,1.3,1.3c0,1.7,0,3.4,0,5.1
		c0,0.5-0.2,0.9-0.5,1.2c-8.2,8.5-16.4,17-24.5,25.5c-0.4,0.4-0.8,0.6-1.4,0.6c-10,0-20,0-30.1,0c-0.6,0-1.1-0.2-1.4-0.7
		c0-2.1,0-4.2,0-6.3c0.2-0.3,0.5-0.6,0.7-0.9c3.8-3.8,7.6-7.6,11.5-11.5c0.2-0.2,0.3-0.4,0.3-0.5c0-0.7,0-1.3-0.2-2
		c-0.5-2-2.2-3.2-4.3-3.2c-2.2,0-4.4,0-6.7,0c-0.6,0-1.1-0.1-1.4-0.7c0-2.1,0-4.2,0-6.3c0.3-0.3,0.5-0.6,0.8-0.9
		c8-8.1,16.1-16.1,24.1-24.1C26.4,1.5,26.7,1.3,27,1z M4.5,25.9c0.1,0.1,0.1,0.1,0.2,0.2c0.1,0,0.1,0,0.2,0c9.1,0,18.3,0,27.4,0
		c0.2,0,0.5-0.2,0.7-0.3c7.5-7.4,14.9-14.9,22.4-22.4c0.1-0.1,0.2-0.2,0.4-0.4c-0.2,0-0.4,0-0.5,0c-9,0-18.1,0-27.1,0
		c-0.3,0-0.6,0.2-0.9,0.4C19.9,10.8,12.5,18.2,5,25.6C4.9,25.7,4.7,25.8,4.5,25.9z M44.5,22.8c-0.1,0.1-0.2,0.2-0.3,0.3
		c-3.4,3.4-6.7,6.7-10.1,10.1c-0.4,0.4-0.8,0.6-1.4,0.6c-2.1,0-4.3,0-6.4,0c-2.9,0-4.7,1.8-4.7,4.7c0,2.7,0,5.3,0,8
		c0,0.5,0,0.9,0.2,1.4c0.5,2.1,2.2,3.3,4.4,3.3c1.9,0,3.9,0,5.8,0c0.5,0,0.9-0.2,1.3-0.5c7.4-7.8,14.9-15.5,22.3-23.3
		c0.1-0.1,0.1-0.2,0.2-0.3c-0.3,0-0.5,0-0.6,0c-1.3,0-2.5,0-3.8,0c-1.4,0-2.8-0.1-4-0.9C46,25.4,45.1,24.3,44.5,22.8z M32.1,53.1
		c-0.3,0-0.5,0-0.7,0c-1.8,0-3.6,0-5.4,0c-3.8,0-6.5-2.7-6.5-6.5c0-2.8,0-5.5,0-8.3c0-3.7,2.7-6.4,6.5-6.4c1.8,0,3.6,0,5.4,0
		c0.2,0,0.4,0,0.6,0c0-1.3,0-2.6,0-3.8c-9.7,0-19.3,0-28.9,0c0,1.3,0,2.5,0,3.8c0.2,0,0.4,0,0.6,0c1.9,0,3.9,0,5.8,0
		c3.3,0.1,6,2.8,6,6c0.1,3.1,0.1,6.1,0,9.2c-0.1,3-2.4,5.6-5.4,5.9c-2.1,0.2-4.3,0.1-6.4,0.1c-0.2,0-0.4,0-0.7,0c0,1.3,0,2.6,0,3.8
		c9.6,0,19.3,0,28.9,0C32.1,55.6,32.1,54.4,32.1,53.1z M57.2,4.4C57,4.5,57,4.5,56.9,4.6c-7.6,7.6-15.1,15.1-22.7,22.7
		c-0.1,0.1-0.2,0.2-0.2,0.3c0,0.9,0,1.9,0,2.9c0.1-0.1,0.2-0.1,0.2-0.2c7.6-7.6,15.1-15.1,22.7-22.7c0.1-0.1,0.2-0.3,0.2-0.4
		C57.2,6.3,57.2,5.4,57.2,4.4z M34,55.5c0.2-0.2,0.3-0.2,0.3-0.3c7.5-7.8,15-15.6,22.6-23.4c0.1-0.1,0.2-0.3,0.2-0.4
		c0-0.9,0-1.8,0-2.8c-0.2,0.2-0.3,0.3-0.4,0.4c-7.5,7.8-15,15.6-22.5,23.4c-0.1,0.1-0.2,0.3-0.2,0.5C34,53.6,34,54.5,34,55.5z
		 M13.8,42.1c-3,3-6,6-9,9c0,0,0.1,0,0.2,0c1.6,0,3.2,0.1,4.9-0.1c2.3-0.2,3.9-1.9,4-4.2C13.8,45.3,13.8,43.7,13.8,42.1z"/>
	<path class="st0" d="M30.3,43.2c-0.1,0.3-0.2,0.5-0.3,0.7c-0.3,0.4-0.6,0.7-1,1c-0.4,0.4-1,0.4-1.4,0.1c-0.4-0.4-0.4-0.9,0-1.4
		c0.3-0.4,0.6-0.8,1-1c0.3-0.2,0.7-0.2,1-0.1C29.9,42.5,30,42.9,30.3,43.2z"/>
	<path class="st0" d="M39.8,33.1c-0.8,0-1.2-0.8-0.8-1.4c0.3-0.5,0.8-1,1.2-1.3c0.3-0.2,0.8-0.1,1.1,0c0.4,0.2,0.6,0.7,0.3,1
		c-0.4,0.6-1,1.1-1.6,1.6C40,33.1,39.9,33.1,39.8,33.1z"/>
	<path class="st0" d="M35.8,37.1c-0.2-0.1-0.5-0.3-0.6-0.6c-0.1-0.3-0.1-0.7,0-0.9c0.3-0.5,0.8-0.9,1.2-1.3c0.3-0.3,0.8-0.3,1.1,0
		c0.4,0.3,0.5,0.7,0.3,1c-0.4,0.6-1,1.1-1.5,1.6C36.2,37.1,36.1,37.1,35.8,37.1z"/>
	<path class="st0" d="M32,41.2c-0.2-0.1-0.5-0.3-0.7-0.5c-0.1-0.3-0.2-0.7,0-0.9c0.3-0.5,0.8-0.9,1.3-1.3c0.3-0.3,0.7-0.2,1.1,0.1
		c0.3,0.3,0.5,0.7,0.3,1c-0.4,0.6-1,1.1-1.5,1.6C32.4,41.1,32.2,41.1,32,41.2z"/>
	<path class="st0" d="M43.7,27.1c0.5,0,1,0.4,1,1c0,0.5-0.5,0.9-1,0.9c-0.5,0-1-0.5-0.9-1C42.7,27.5,43.1,27.1,43.7,27.1z"/>
	<path class="st0" d="M26.3,47.3c0,0.5-0.5,1-1,1c-0.5,0-0.9-0.4-0.9-1c0-0.6,0.4-1,1-0.9C25.9,46.3,26.3,46.8,26.3,47.3z"/>
</g>
</svg>
