<?xml version="1.0" encoding="utf-8"?>
<!-- Generator: Adobe Illustrator 23.0.5, SVG Export Plug-In . SVG Version: 6.00 Build 0)  -->
<svg version="1.1" id="Capa_1" xmlns="http://www.w3.org/2000/svg" xmlns:xlink="http://www.w3.org/1999/xlink" x="0px" y="0px"
	 viewBox="0 0 60 60" style="enable-background:new 0 0 60 60;" xml:space="preserve">
<style type="text/css">
	.st0{fill:#2F2F2F;}
</style>
<g>
	<path class="st0" d="M1.1,25.4c0.3-1.2,0.8-2.2,1.8-3c1-0.8,2.1-1.1,3.3-1.1c4.4,0,8.9,0,13.3,0c0.2,0,0.4,0,0.7,0
		c0-0.3,0-0.5,0-0.7c0-4.8,0-9.6,0-14.4c0-2.4,1.4-4.3,3.7-4.8c0.5-0.1,1-0.2,1.4-0.2c9.4,0,18.8,0,28.2,0c3.1,0,5.1,2,5.1,5.1
		c0,6.7,0,13.4,0,20.1c0,2.5-1.1,4.5-3.7,5.4c0.2,0.9,0.3,1.8,0.5,2.7c0.1,0.3,0.1,0.5,0.2,0.8c0.2,0.8,0,1.6-0.8,2.1
		c-0.7,0.5-1.5,0.4-2.2,0c-2-1.2-4-2.5-6-3.7c-0.9-0.6-1.8-1.3-2.8-1.6c-1-0.3-2.1-0.1-3.1-0.1c-0.4,0-0.9,0-1.4,0
		c0,0.3,0,0.5,0,0.7c0,4.8,0,9.6,0,14.4c0,2.5-1.4,4.4-3.7,4.9c-0.5,0.1-1,0.1-1.5,0.1c-6,0-11.9,0-17.9,0c-0.4,0-0.7,0.1-1,0.3
		c-2.7,1.7-5.5,3.3-8.2,5c-0.7,0.5-1.5,0.6-2.2,0.1c-0.7-0.4-1-1.2-0.8-2.2c0.2-1.1,0.5-2.2,0.7-3.4c-0.4-0.2-0.8-0.3-1.1-0.5
		c-1.3-0.7-2-1.7-2.4-3.1c0-0.1-0.1-0.3-0.1-0.4C1.1,40.4,1.1,32.9,1.1,25.4z M53.8,35.7c0-0.2,0-0.3-0.1-0.5
		c-0.3-1.3-0.5-2.6-0.8-3.9c-0.2-0.8,0.2-1.3,0.9-1.4c2-0.3,2.9-1.3,2.9-3.3c0-6.8,0-13.6,0-20.4c0-2-1.2-3.2-3.2-3.2
		c-9.4,0-18.7,0-28.1,0c-2,0-3.3,1.4-3.2,3.3c0.1,4.8,0,9.6,0,14.3c0,0.2,0,0.4,0,0.7c0.3,0,0.5,0,0.7,0c3.4,0,6.7,0,10.1,0
		c0.7,0,1.4,0,2.1,0c2.4,0.2,4.2,2.1,4.3,4.5c0,1.1,0,2.3,0,3.4c0,0.2,0,0.4,0,0.6c1.4,0,2.8,0,4.1,0c0.7,0,1.2,0.2,1.7,0.5
		c2.1,1.3,4.2,2.6,6.3,3.9C52.3,34.8,53,35.2,53.8,35.7z M5.9,55.8c0.2-0.1,0.3-0.2,0.5-0.3c2.7-1.7,5.4-3.3,8.2-5
		c0.4-0.3,1-0.4,1.5-0.4c6.1,0,12.2,0,18.4,0c2,0,3.2-1.1,3.2-3.1c0-6.9,0-13.7,0-20.6c0-1.9-1.2-3.1-3.1-3.1c-1.2,0-2.4,0-3.5,0
		c-8.2,0-16.4,0-24.7,0c-2.1,0-3.2,1.2-3.2,3.2c0,6.9,0,13.7,0,20.6c0,1.7,1,2.8,2.7,3c1,0.1,1.2,0.5,1,1.5
		C6.5,52.9,6.2,54.3,5.9,55.8z"/>
	<path class="st0" d="M29.8,12.7c1.6,0,2.9,1.3,2.9,2.8c0,1.6-1.3,2.9-2.9,2.9c-1.6,0-2.9-1.3-2.9-2.9C27,14,28.3,12.7,29.8,12.7z
		 M29.8,14.6c-0.5,0-1,0.4-0.9,1c0,0.5,0.4,0.9,0.9,0.9c0.5,0,1-0.4,1-0.9C30.8,15,30.4,14.6,29.8,14.6z"/>
	<path class="st0" d="M51.9,15.6c0,1.6-1.3,2.9-2.9,2.9c-1.6,0-2.9-1.3-2.9-2.9c0-1.6,1.3-2.9,2.9-2.8C50.7,12.7,51.9,14,51.9,15.6z
		 M50,15.5c0-0.5-0.4-0.9-1-0.9c-0.5,0-0.9,0.4-0.9,0.9c0,0.5,0.4,1,1,1C49.6,16.5,50,16.1,50,15.5z"/>
	<path class="st0" d="M36.6,15.5c0-1.6,1.3-2.8,2.9-2.8c1.6,0,2.9,1.3,2.9,2.9c0,1.6-1.3,2.9-2.9,2.9C37.9,18.5,36.6,17.2,36.6,15.5
		z M39.4,14.6c-0.5,0-1,0.4-1,1c0,0.5,0.4,0.9,0.9,0.9c0.5,0,1-0.4,1-0.9C40.4,15.1,40,14.6,39.4,14.6z"/>
	<path class="st0" d="M30.8,37.6c0.9,0,1.8,0,2.6,0c1.5,0,2.2,0.7,2.2,2.2c0,0.8,0,1.7,0,2.5c0,1.2-0.8,2-2,2c-2.4,0-4.9,0.1-7.3,0
		c-1.6-0.1-3.1,0.1-4.7,0c-1.6-0.1-3.2,0-4.8,0c-0.4,0-0.8-0.1-1.2-0.2c-0.1,0-0.2-0.1-0.2-0.1c-1.4,0.5-2.9,0.2-4.3,0.2
		c-1.4,0.1-2.8,0-4.2,0c-1.3,0-2.1-0.8-2.1-2.1c0-0.9,0-1.7,0-2.6c0-1.3,0.8-2,2-2c0.9,0,1.8,0,2.8,0c0-0.9,0-1.7,0-2.5
		c0-1.6,0.7-2.3,2.3-2.3c0.8,0,1.6,0,2.5,0c0-0.7,0-1.4,0-2c-0.1-2.1,0.7-2.9,2.8-2.8c2.2,0.1,4.3,0,6.5,0c1.5,0,2.2,0.8,2.2,2.2
		c0,0.8,0,1.7,0,2.6c0.9,0,1.7,0,2.6,0c1.4,0,2.2,0.7,2.2,2.2C30.8,35.9,30.8,36.7,30.8,37.6z M24.1,30c-2.6,0-5.1,0-7.6,0
		c0,1,0,1.9,0,2.8c2.6,0,5.1,0,7.6,0C24.1,31.9,24.1,31,24.1,30z M11.6,37.6c2.6,0,5.1,0,7.6,0c0-1,0-1.9,0-2.8c-2.6,0-5.1,0-7.6,0
		C11.6,35.7,11.6,36.6,11.6,37.6z M21.2,37.6c2.6,0,5.1,0,7.6,0c0-1,0-1.9,0-2.8c-2.6,0-5.1,0-7.6,0C21.2,35.7,21.2,36.6,21.2,37.6z
		 M6.8,42.4c2.6,0,5.1,0,7.6,0c0-1,0-1.9,0-2.8c-2.6,0-5.1,0-7.6,0C6.8,40.5,6.8,41.5,6.8,42.4z M16.4,42.4c2.6,0,5.1,0,7.6,0
		c0-1,0-1.9,0-2.8c-2.6,0-5.1,0-7.6,0C16.4,40.5,16.4,41.4,16.4,42.4z M33.7,39.6c-2.6,0-5.1,0-7.6,0c0,1,0,1.9,0,2.8
		c2.5,0,5.1,0,7.6,0C33.7,41.5,33.7,40.5,33.7,39.6z"/>
</g>
</svg>
